Coordinates
version=1
nRows=7
nColumns=40
inDegrees=yes

Units are S.I. units (second, meters, Newtons, ...)
If the header above contains a line with 'inDegrees', this indicates whether rotational values are in degrees (yes) or radians (no).

endheader
time	pelvis_tilt	pelvis_list	pelvis_rotation	pelvis_tx	pelvis_ty	pelvis_tz	hip_flexion_r	hip_adduction_r	hip_rotation_r	knee_angle_r	knee_angle_r_beta	ankle_angle_r	subtalar_angle_r	mtp_angle_r	hip_flexion_l	hip_adduction_l	hip_rotation_l	knee_angle_l	knee_angle_l_beta	ankle_angle_l	subtalar_angle_l	mtp_angle_l	lumbar_extension	lumbar_bending	lumbar_rotation	arm_flex_r	arm_add_r	arm_rot_r	elbow_flex_r	pro_sup_r	wrist_flex_r	wrist_dev_r	arm_flex_l	arm_add_l	arm_rot_l	elbow_flex_l	pro_sup_l	wrist_flex_l	wrist_dev_l
      3.80000000	     -6.73832427	     -0.82567870	     -3.39239187	     -0.26169469	      1.04494066	     -1.03424963	     12.40382411	     -8.30387646	     -8.23044889	     81.79828895	      1.42764946	    -18.01245519	      0.00000000	      0.00000000	     13.95807196	      2.53634640	     -6.66319191	     16.55410583	      0.28892365	     -3.44653787	      0.00000000	      0.00000000	     -2.47911394	     -1.21651215	      8.74168227	     78.38658431	    -26.91900583	     38.70797006	     47.63899417	     83.01878077	      0.00000000	      0.00000000	     81.99403803	    -20.70121592	     46.87658538	     45.23791397	     82.22803491	      0.00000000	      0.00000000
      3.80500000	     -6.85640983	     -0.75180356	     -3.48312292	     -0.26211516	      1.04449426	     -1.03408912	     12.55047460	     -8.34294199	     -8.10986010	     81.79995089	      1.42767847	    -17.97269075	      0.00000000	      0.00000000	     14.21306928	      2.57215886	     -6.75230381	     16.76291053	      0.29256798	     -3.30433006	      0.00000000	      0.00000000	     -2.43554538	     -1.28706150	      8.89034475	     78.42430148	    -26.95206815	     38.49754553	     47.65650978	     83.45135732	      0.00000000	      0.00000000	     82.00635350	    -20.65031638	     46.67079342	     45.22817505	     83.04855616	      0.00000000	      0.00000000
      3.81000000	     -6.90486200	     -0.72753083	     -3.46914828	     -0.26283212	      1.04418132	     -1.03398821	     12.61374480	     -8.33499254	     -8.07747123	     81.78851380	      1.42747886	    -17.97451796	      0.00000000	      0.00000000	     14.44197764	      2.57036259	     -6.72717764	     17.03270553	      0.29727679	     -3.19090957	      0.00000000	      0.00000000	     -2.52672948	     -1.32121311	      8.88007786	     78.60410443	    -26.94103120	     38.59323447	     47.63067726	     83.33848135	      0.00000000	      0.00000000	     82.13165698	    -20.65327345	     46.67764483	     45.16298205	     83.16106061	      0.00000000	      0.00000000
      3.81500000	     -7.00536151	     -0.69100951	     -3.46817591	     -0.26333113	      1.04373941	     -1.03390323	     12.71223317	     -8.34430987	     -8.03893953	     81.76382018	      1.42704787	    -17.96727928	      0.00000000	      0.00000000	     14.71335242	      2.57929012	     -6.72740638	     17.31019051	      0.30211982	     -3.07371859	      0.00000000	      0.00000000	     -2.52399041	     -1.36588816	      8.90245353	     78.70944879	    -26.95853185	     38.62285995	     47.61281362	     83.27885603	      0.00000000	      0.00000000	     82.22399083	    -20.64176912	     46.69494459	     45.11908744	     83.17941566	      0.00000000	      0.00000000
      3.82000000	     -7.05136336	     -0.64199598	     -3.46057194	     -0.26360072	      1.04338948	     -1.03395667	     12.71231298	     -8.37932544	     -8.00517782	     81.69963052	      1.42592755	    -17.95699356	      0.00000000	      0.00000000	     14.88174270	      2.61830909	     -6.77121094	     17.50719648	      0.30555822	     -2.96551359	      0.00000000	      0.00000000	     -2.56490419	     -1.41080263	      8.91399271	     78.82407195	    -26.95766066	     38.71547053	     47.56874662	     83.23029707	      0.00000000	      0.00000000	     82.29510616	    -20.67759271	     46.79294728	     45.14109308	     83.20110464	      0.00000000	      0.00000000
      3.82500000	     -7.14533618	     -0.61513842	     -3.45704636	     -0.26398565	      1.04298833	     -1.03395421	     12.77976228	     -8.35700754	     -7.93609498	     81.64626765	      1.42499619	    -18.08656066	      0.00000000	      0.00000000	     15.10921409	      2.62397548	     -6.78409350	     17.72277028	      0.30932069	     -2.88134431	      0.00000000	      0.00000000	     -2.55929699	     -1.43508202	      8.93190118	     78.94195197	    -26.96640636	     38.78751305	     47.48871125	     83.14096627	      0.00000000	      0.00000000	     82.35273616	    -20.64027850	     46.79102447	     45.06325222	     83.11976812	      0.00000000	      0.00000000
      3.83000000	     -7.21096180	     -0.56877255	     -3.44542876	     -0.26439638	      1.04258551	     -1.03396202	     12.82802237	     -8.36655795	     -7.88530418	     81.62411791	      1.42460961	    -18.02439678	      0.00000000	      0.00000000	     15.33202649	      2.65643882	     -6.73277508	     17.97553946	      0.31373235	     -2.77272041	      0.00000000	      0.00000000	     -2.60024838	     -1.47768359	      8.93527938	     79.07601253	    -26.97100501	     38.85311124	     47.48054465	     83.25005916	      0.00000000	      0.00000000	     82.40236948	    -20.68291296	     46.77894168	     45.13113100	     83.17584651	      0.00000000	      0.00000000
